<svg width="88" height="88" viewBox="0 0 88 88" fill="none" xmlns="http://www.w3.org/2000/svg">
<g filter="url(#filter0_d_198_1162)">
<rect width="80" height="80" rx="16" fill="#262626"/>
<path d="M17.2884 26.8182H24.5497V54.2955C24.5497 56.3182 24.152 57.9545 23.3565 59.2045C22.5611 60.4545 21.419 61.3693 19.9304 61.9489C18.4531 62.5284 16.6861 62.8182 14.6293 62.8182C14.3793 62.8182 14.1406 62.8125 13.9134 62.8011C13.6747 62.8011 13.4247 62.7955 13.1634 62.7841V57.108C13.3565 57.1193 13.527 57.125 13.6747 57.125C13.8111 57.1364 13.9588 57.142 14.1179 57.142C15.2884 57.142 16.1065 56.892 16.5724 56.392C17.0497 55.9034 17.2884 55.1648 17.2884 54.1761V26.8182ZM20.902 23.4432C19.8338 23.4432 18.9134 23.0852 18.1406 22.3693C17.3679 21.642 16.9815 20.7727 16.9815 19.7614C16.9815 18.7614 17.3679 17.9034 18.1406 17.1875C18.9134 16.4602 19.8338 16.0966 20.902 16.0966C21.9929 16.0966 22.919 16.4602 23.6804 17.1875C24.4531 17.9034 24.8395 18.7614 24.8395 19.7614C24.8395 20.7727 24.4531 21.642 23.6804 22.3693C22.919 23.0852 21.9929 23.4432 20.902 23.4432ZM36.8324 53.4943C35.1619 53.4943 33.6733 53.2045 32.3665 52.625C31.0597 52.0341 30.0256 51.1648 29.2642 50.017C28.5142 48.858 28.1392 47.4148 28.1392 45.6875C28.1392 44.233 28.4063 43.0114 28.9403 42.0227C29.4744 41.0341 30.2017 40.2386 31.1222 39.6364C32.0426 39.0341 33.0881 38.5795 34.2585 38.2727C35.4403 37.9659 36.679 37.75 37.9744 37.625C39.4972 37.4659 40.7244 37.3182 41.6562 37.1818C42.5881 37.0341 43.2642 36.8182 43.6847 36.5341C44.1051 36.25 44.3153 35.8295 44.3153 35.2727V35.1705C44.3153 34.0909 43.9744 33.2557 43.2926 32.6648C42.6222 32.0739 41.6676 31.7784 40.429 31.7784C39.1222 31.7784 38.0824 32.0682 37.3097 32.6477C36.5369 33.2159 36.0256 33.9318 35.7756 34.7955L29.0597 34.25C29.4006 32.6591 30.071 31.2841 31.071 30.125C32.071 28.9545 33.3608 28.0568 34.9403 27.4318C36.5313 26.7955 38.3722 26.4773 40.4631 26.4773C41.9176 26.4773 43.3097 26.6477 44.6392 26.9886C45.9801 27.3295 47.1676 27.858 48.2017 28.5739C49.2472 29.2898 50.071 30.2102 50.6733 31.3352C51.2756 32.4489 51.5767 33.7841 51.5767 35.3409V53H44.6903V49.3693H44.4858C44.0653 50.1875 43.5028 50.9091 42.7983 51.5341C42.0938 52.1477 41.2472 52.6307 40.2585 52.983C39.2699 53.3239 38.1278 53.4943 36.8324 53.4943ZM38.9119 48.483C39.9801 48.483 40.9233 48.2727 41.7415 47.8523C42.5597 47.4205 43.2017 46.8409 43.6676 46.1136C44.1335 45.3864 44.3665 44.5625 44.3665 43.642V40.8636C44.1392 41.0114 43.8267 41.1477 43.429 41.2727C43.0426 41.3864 42.6051 41.4943 42.1165 41.5966C41.6278 41.6875 41.1392 41.7727 40.6506 41.8523C40.1619 41.9205 39.7188 41.983 39.321 42.0398C38.4688 42.1648 37.7244 42.3636 37.0881 42.6364C36.4517 42.9091 35.9574 43.2784 35.6051 43.7443C35.2528 44.1989 35.0767 44.767 35.0767 45.4489C35.0767 46.4375 35.4347 47.1932 36.1506 47.7159C36.8778 48.2273 37.7983 48.483 38.9119 48.483Z" fill="#FAFAFA"/>
<path d="M60.4545 53.4432C59.3295 53.4432 58.3636 53.0455 57.5568 52.25C56.7614 51.4432 56.3636 50.4773 56.3636 49.3523C56.3636 48.2386 56.7614 47.2841 57.5568 46.4886C58.3636 45.6932 59.3295 45.2955 60.4545 45.2955C61.5455 45.2955 62.5 45.6932 63.3182 46.4886C64.1364 47.2841 64.5455 48.2386 64.5455 49.3523C64.5455 50.1023 64.3523 50.7898 63.9659 51.4148C63.5909 52.0284 63.0966 52.5227 62.483 52.8977C61.8693 53.2614 61.1932 53.4432 60.4545 53.4432Z" fill="#7C3AED"/>
<path d="M17.2884 26.8182V25.8182H16.2884V26.8182H17.2884ZM24.5497 26.8182H25.5497V25.8182H24.5497V26.8182ZM23.3565 59.2045L24.2002 59.7414L23.3565 59.2045ZM19.9304 61.9489L19.5676 61.017L19.5652 61.0179L19.9304 61.9489ZM13.9134 62.8011L13.9633 61.8024L13.9383 61.8011H13.9134V62.8011ZM13.1634 62.7841H12.1634V63.7416L13.1199 63.7831L13.1634 62.7841ZM13.1634 57.108L13.2221 56.1097L12.1634 56.0474V57.108H13.1634ZM13.6747 57.125L13.7578 56.1285L13.7163 56.125H13.6747V57.125ZM16.5724 56.392L15.8571 55.6933L15.8489 55.7017L15.8408 55.7103L16.5724 56.392ZM18.1406 22.3693L17.4552 23.0975L17.461 23.1029L18.1406 22.3693ZM18.1406 17.1875L18.8203 17.9211L18.826 17.9157L18.1406 17.1875ZM23.6804 17.1875L22.9897 17.9106L22.9952 17.9159L23.0008 17.9211L23.6804 17.1875ZM23.6804 22.3693L24.3654 23.0978L24.3658 23.0975L23.6804 22.3693ZM17.2884 27.8182H24.5497V25.8182H17.2884V27.8182ZM23.5497 26.8182V54.2955H25.5497V26.8182H23.5497ZM23.5497 54.2955C23.5497 56.1952 23.1753 57.6267 22.5129 58.6677L24.2002 59.7414C25.1287 58.2824 25.5497 56.4412 25.5497 54.2955H23.5497ZM22.5129 58.6677C21.8407 59.7239 20.8744 60.5082 19.5676 61.017L20.2932 62.8807C21.9636 62.2304 23.2814 61.1852 24.2002 59.7414L22.5129 58.6677ZM19.5652 61.0179C18.2331 61.5405 16.5963 61.8182 14.6293 61.8182V63.8182C16.7758 63.8182 18.6732 63.5163 20.2956 62.8798L19.5652 61.0179ZM14.6293 61.8182C14.3943 61.8182 14.1724 61.8128 13.9633 61.8024L13.8634 63.7999C14.1088 63.8122 14.3642 63.8182 14.6293 63.8182V61.8182ZM13.9134 61.8011C13.6905 61.8011 13.455 61.7958 13.2068 61.785L13.1199 63.7831C13.3944 63.7951 13.6589 63.8011 13.9134 63.8011V61.8011ZM14.1634 62.7841V57.108H12.1634V62.7841H14.1634ZM13.1046 58.1062C13.3118 58.1184 13.5025 58.125 13.6747 58.125V56.125C13.5515 56.125 13.4013 56.1202 13.2221 56.1097L13.1046 58.1062ZM13.5917 58.1215C13.7597 58.1355 13.9354 58.142 14.1179 58.142V56.142C13.9822 56.142 13.8625 56.1372 13.7578 56.1285L13.5917 58.1215ZM14.1179 58.142C15.3791 58.142 16.5512 57.8817 17.3041 57.0738L15.8408 55.7103C15.6619 55.9024 15.1976 56.142 14.1179 56.142V58.142ZM17.2878 57.0908C18.0154 56.3458 18.2884 55.3092 18.2884 54.1761H16.2884C16.2884 55.0203 16.084 55.461 15.8571 55.6933L17.2878 57.0908ZM18.2884 54.1761V26.8182H16.2884V54.1761H18.2884ZM20.902 22.4432C20.0819 22.4432 19.4052 22.1777 18.8202 21.6358L17.461 23.1029C18.4215 23.9927 19.5857 24.4432 20.902 24.4432V22.4432ZM18.826 21.6411C18.2429 21.0924 17.9815 20.4821 17.9815 19.7614H15.9815C15.9815 21.0633 16.4929 22.1917 17.4553 23.0975L18.826 21.6411ZM17.9815 19.7614C17.9815 19.0561 18.2395 18.4591 18.8202 17.9211L17.461 16.4539C16.4963 17.3477 15.9815 18.4666 15.9815 19.7614H17.9815ZM18.826 17.9157C19.4119 17.3643 20.0867 17.0966 20.902 17.0966V15.0966C19.581 15.0966 18.4149 15.5562 17.4553 16.4593L18.826 17.9157ZM20.902 17.0966C21.7459 17.0966 22.4217 17.368 22.9897 17.9106L24.3711 16.4644C23.4164 15.5524 22.2399 15.0966 20.902 15.0966V17.0966ZM23.0008 17.9211C23.5815 18.4591 23.8395 19.0561 23.8395 19.7614H25.8395C25.8395 18.4666 25.3247 17.3477 24.36 16.4539L23.0008 17.9211ZM23.8395 19.7614C23.8395 20.4821 23.5781 21.0924 22.995 21.6411L24.3658 23.0975C25.3282 22.1917 25.8395 21.0633 25.8395 19.7614H23.8395ZM22.9954 21.6408C22.4283 22.1741 21.7506 22.4432 20.902 22.4432V24.4432C22.2351 24.4432 23.4098 23.9964 24.3654 23.0978L22.9954 21.6408ZM32.3665 52.625L31.9545 53.5362L31.9611 53.5391L32.3665 52.625ZM29.2642 50.017L28.4246 50.5603L28.4309 50.5698L29.2642 50.017ZM28.9403 42.0227L28.0605 41.5474L28.9403 42.0227ZM31.1222 39.6364L30.5746 38.7996L31.1222 39.6364ZM34.2585 38.2727L34.0072 37.3048L34.005 37.3054L34.2585 38.2727ZM37.9744 37.625L38.0705 38.6204L38.0783 38.6196L37.9744 37.625ZM41.6562 37.1818L41.8011 38.1713L41.8128 38.1695L41.6562 37.1818ZM43.6847 36.5341L43.1248 35.7055L43.6847 36.5341ZM43.2926 32.6648L42.6314 33.415L42.6377 33.4205L43.2926 32.6648ZM37.3097 32.6477L37.9021 33.4534L37.9097 33.4477L37.3097 32.6477ZM35.7756 34.7955L35.6946 35.7922L36.509 35.8583L36.7361 35.0735L35.7756 34.7955ZM29.0597 34.25L28.0819 34.0405L27.8431 35.1545L28.9787 35.2467L29.0597 34.25ZM31.071 30.125L31.8282 30.7782L31.8313 30.7746L31.071 30.125ZM34.9403 27.4318L35.3083 28.3617L35.3117 28.3603L34.9403 27.4318ZM44.6392 26.9886L44.3908 27.9573L44.3928 27.9578L44.6392 26.9886ZM48.2017 28.5739L47.6325 29.3961L47.6367 29.3989L48.2017 28.5739ZM50.6733 31.3352L49.7917 31.8072L49.7937 31.8109L50.6733 31.3352ZM51.5767 53V54H52.5767V53H51.5767ZM44.6903 53H43.6903V54H44.6903V53ZM44.6903 49.3693H45.6903V48.3693H44.6903V49.3693ZM44.4858 49.3693V48.3693H43.8754L43.5964 48.9123L44.4858 49.3693ZM42.7983 51.5341L43.4551 52.2882L43.4619 52.2822L42.7983 51.5341ZM40.2585 52.983L40.5845 53.9284L40.5942 53.9249L40.2585 52.983ZM41.7415 47.8523L42.1986 48.7418L42.2082 48.7367L41.7415 47.8523ZM43.6676 46.1136L42.8256 45.5742V45.5742L43.6676 46.1136ZM44.3665 40.8636H45.3665V39.021L43.8215 40.0252L44.3665 40.8636ZM43.429 41.2727L43.7111 42.2321L43.72 42.2295L43.7288 42.2267L43.429 41.2727ZM42.1165 41.5966L42.2994 42.5797L42.3104 42.5777L42.3213 42.5754L42.1165 41.5966ZM40.6506 41.8523L40.7888 42.8427L40.8 42.8411L40.8112 42.8393L40.6506 41.8523ZM39.321 42.0398L39.1796 41.0498L39.1759 41.0504L39.321 42.0398ZM37.0881 42.6364L37.482 43.5555L37.0881 42.6364ZM35.6051 43.7443L36.3956 44.3569L36.4028 44.3474L35.6051 43.7443ZM36.1506 47.7159L35.5609 48.5235L35.5681 48.5288L35.5754 48.5339L36.1506 47.7159ZM36.8324 52.4943C35.2783 52.4943 33.9313 52.2251 32.7719 51.7109L31.9611 53.5391C33.4153 54.184 35.0456 54.4943 36.8324 54.4943V52.4943ZM32.7785 51.7138C31.6356 51.197 30.7505 50.4486 30.0975 49.4643L28.4309 50.5698C29.3006 51.8809 30.4837 52.8712 31.9545 53.5362L32.7785 51.7138ZM30.1038 49.4738C29.482 48.5128 29.1392 47.2703 29.1392 45.6875H27.1392C27.1392 47.5592 27.5464 49.2031 28.4246 50.5603L30.1038 49.4738ZM29.1392 45.6875C29.1392 44.3514 29.3848 43.3039 29.8202 42.498L28.0605 41.5474C27.4277 42.7188 27.1392 44.1145 27.1392 45.6875H29.1392ZM29.8202 42.498C30.277 41.6524 30.8914 40.9824 31.6697 40.4732L30.5746 38.7996C29.512 39.4949 28.6718 40.4158 28.0605 41.5474L29.8202 42.498ZM31.6697 40.4732C32.4913 39.9356 33.4356 39.5222 34.5121 39.24L34.005 37.3054C32.7405 37.6369 31.594 38.1326 30.5746 38.7996L31.6697 40.4732ZM34.5098 39.2406C35.6375 38.9479 36.824 38.7407 38.0705 38.6204L37.8784 36.6296C36.534 36.7593 35.2432 36.9839 34.0072 37.3048L34.5098 39.2406ZM38.0783 38.6196C39.6074 38.4598 40.8499 38.3105 41.801 38.1713L41.5115 36.1924C40.5989 36.3259 39.3869 36.472 37.8705 36.6304L38.0783 38.6196ZM41.8128 38.1695C42.7858 38.0152 43.6388 37.7719 44.2445 37.3627L43.1248 35.7055C42.8896 35.8644 42.3903 36.0529 41.4997 36.1942L41.8128 38.1695ZM44.2445 37.3627C44.9703 36.8723 45.3153 36.1236 45.3153 35.2727H43.3153C43.3153 35.5355 43.2399 35.6277 43.1248 35.7055L44.2445 37.3627ZM45.3153 35.2727V35.1705H43.3153V35.2727H45.3153ZM45.3153 35.1705C45.3153 33.8634 44.8917 32.7274 43.9475 31.9091L42.6377 33.4205C43.0571 33.784 43.3153 34.3184 43.3153 35.1705H45.3153ZM43.9538 31.9146C43.0408 31.1098 41.8171 30.7784 40.429 30.7784V32.7784C41.5181 32.7784 42.2036 33.0379 42.6314 33.415L43.9538 31.9146ZM40.429 30.7784C38.9812 30.7784 37.7074 31.0994 36.7097 31.8477L37.9097 33.4477C38.4574 33.037 39.2631 32.7784 40.429 32.7784V30.7784ZM36.7173 31.8421C35.7797 32.5315 35.1305 33.4275 34.815 34.5174L36.7361 35.0735C36.9206 34.4361 37.2942 33.9004 37.9021 33.4534L36.7173 31.8421ZM35.8565 33.7987L29.1406 33.2533L28.9787 35.2467L35.6946 35.7922L35.8565 33.7987ZM30.0375 34.4595C30.3455 33.022 30.9447 31.8023 31.8282 30.7782L30.3139 29.4718C29.1974 30.7659 28.4556 32.2961 28.0819 34.0405L30.0375 34.4595ZM31.8313 30.7746C32.7147 29.7406 33.8644 28.933 35.3083 28.3617L34.5724 26.502C32.8572 27.1807 31.4273 28.1685 30.3107 29.4754L31.8313 30.7746ZM35.3117 28.3603C36.7616 27.7803 38.4722 27.4773 40.4631 27.4773V25.4773C38.2722 25.4773 36.3009 25.8106 34.569 26.5033L35.3117 28.3603ZM40.4631 27.4773C41.8388 27.4773 43.1471 27.6384 44.3908 27.9573L44.8876 26.02C43.4722 25.6571 41.9964 25.4773 40.4631 25.4773V27.4773ZM44.3928 27.9578C45.6298 28.2723 46.7057 28.7544 47.6325 29.3961L48.7709 27.7517C47.6295 26.9615 46.3305 26.3868 44.8856 26.0195L44.3928 27.9578ZM47.6367 29.3989C48.5489 30.0236 49.2645 30.8225 49.7917 31.8072L51.5549 30.8633C50.8775 29.5979 49.9455 28.556 48.7667 27.7488L47.6367 29.3989ZM49.7937 31.8109C50.3008 32.7486 50.5767 33.9125 50.5767 35.3409H52.5767C52.5767 33.6557 52.2504 32.1492 51.5529 30.8595L49.7937 31.8109ZM50.5767 35.3409V53H52.5767V35.3409H50.5767ZM51.5767 52H44.6903V54H51.5767V52ZM45.6903 53V49.3693H43.6903V53H45.6903ZM44.6903 48.3693H44.4858V50.3693H44.6903V48.3693ZM43.5964 48.9123C43.2339 49.6176 42.7488 50.2412 42.1347 50.786L43.4619 52.2822C44.2568 51.577 44.8968 50.7574 45.3752 49.8264L43.5964 48.9123ZM42.1415 50.78C41.5422 51.302 40.8081 51.7255 39.9229 52.041L40.5942 53.9249C41.6862 53.5358 42.6453 52.9935 43.4551 52.2882L42.1415 50.78ZM39.9325 52.0376C39.0704 52.3349 38.0423 52.4943 36.8324 52.4943V54.4943C38.2133 54.4943 39.4694 54.3129 40.5845 53.9283L39.9325 52.0376ZM38.9119 49.483C40.1134 49.483 41.2178 49.2457 42.1985 48.7417L41.2844 46.9628C40.6288 47.2997 39.8468 47.483 38.9119 47.483V49.483ZM42.2082 48.7367C43.168 48.2301 43.9439 47.5361 44.5096 46.6531L42.8256 45.5742C42.4595 46.1457 41.9513 46.6108 41.2747 46.9679L42.2082 48.7367ZM44.5096 46.6531C45.0856 45.7541 45.3665 44.7406 45.3665 43.642H43.3665C43.3665 44.3844 43.1815 45.0187 42.8256 45.5742L44.5096 46.6531ZM45.3665 43.642V40.8636H43.3665V43.642H45.3665ZM43.8215 40.0252C43.6996 40.1045 43.4814 40.208 43.1292 40.3187L43.7288 42.2267C44.172 42.0874 44.5789 41.9183 44.9115 41.7021L43.8215 40.0252ZM43.1468 40.3134C42.7911 40.418 42.3801 40.5197 41.9116 40.6178L42.3213 42.5754C42.8301 42.4689 43.2941 42.3547 43.7111 42.2321L43.1468 40.3134ZM41.9336 40.6135C41.4523 40.703 40.9711 40.7869 40.4899 40.8653L40.8112 42.8393C41.3073 42.7585 41.8034 42.672 42.2994 42.5797L41.9336 40.6135ZM40.5124 40.8619C40.0229 40.9302 39.5786 40.9928 39.1796 41.0498L39.4624 43.0297C39.8589 42.9731 40.301 42.9107 40.7888 42.8427L40.5124 40.8619ZM39.1759 41.0504C38.2579 41.185 37.4266 41.4033 36.6941 41.7172L37.482 43.5555C38.0222 43.324 38.6796 43.1445 39.4661 43.0292L39.1759 41.0504ZM36.6941 41.7172C35.9277 42.0457 35.2825 42.513 34.8075 43.1412L36.4028 44.3474C36.6323 44.0439 36.9757 43.7725 37.482 43.5555L36.6941 41.7172ZM34.8147 43.1317C34.3026 43.7926 34.0767 44.5879 34.0767 45.4489H36.0767C36.0767 44.9462 36.2031 44.6052 36.3955 44.3569L34.8147 43.1317ZM34.0767 45.4489C34.0767 46.7142 34.5546 47.7888 35.5609 48.5235L36.7403 46.9083C36.3147 46.5976 36.0767 46.1608 36.0767 45.4489H34.0767ZM35.5754 48.5339C36.5094 49.1906 37.6448 49.483 38.9119 49.483V47.483C37.9518 47.483 37.2463 47.2639 36.7257 46.8979L35.5754 48.5339ZM57.5568 52.25L56.8447 52.9521L56.8497 52.9571L56.8547 52.9621L57.5568 52.25ZM57.5568 46.4886L56.8547 45.7765L56.8497 45.7815L57.5568 46.4886ZM63.3182 46.4886L62.6211 47.2056L63.3182 46.4886ZM63.9659 51.4148L63.1153 50.8889L63.1126 50.8933L63.9659 51.4148ZM62.483 52.8977L62.9928 53.7581L63.0044 53.751L62.483 52.8977ZM60.4545 52.4432C59.5944 52.4432 58.8801 52.1503 58.2589 51.5379L56.8547 52.9621C57.8472 53.9406 59.0647 54.4432 60.4545 54.4432V52.4432ZM58.2689 51.5479C57.6565 50.9267 57.3636 50.2124 57.3636 49.3523H55.3636C55.3636 50.7421 55.8663 51.9596 56.8447 52.9521L58.2689 51.5479ZM57.3636 49.3523C57.3636 48.5069 57.6539 47.8058 58.2639 47.1957L56.8497 45.7815C55.8689 46.7624 55.3636 47.9704 55.3636 49.3523H57.3636ZM58.2589 47.2007C58.8801 46.5883 59.5944 46.2955 60.4545 46.2955V44.2955C59.0647 44.2955 57.8472 44.7981 56.8547 45.7765L58.2589 47.2007ZM60.4545 46.2955C61.2721 46.2955 61.9801 46.5824 62.6211 47.2056L64.0153 45.7716C63.0199 44.804 61.8188 44.2955 60.4545 44.2955V46.2955ZM62.6211 47.2056C63.251 47.818 63.5455 48.5161 63.5455 49.3523H65.5455C65.5455 47.9611 65.0217 46.7501 64.0153 45.7716L62.6211 47.2056ZM63.5455 49.3523C63.5455 49.9206 63.4019 50.4254 63.1153 50.889L64.8165 51.9406C65.3027 51.1542 65.5455 50.284 65.5455 49.3523H63.5455ZM63.1126 50.8933C62.8204 51.3716 62.4398 51.7522 61.9615 52.0444L63.0044 53.751C63.7534 53.2933 64.3615 52.6852 64.8192 51.9362L63.1126 50.8933ZM61.9732 52.0374C61.5195 52.3063 61.0205 52.4432 60.4545 52.4432V54.4432C61.3659 54.4432 62.2192 54.2164 62.9928 53.758L61.9732 52.0374Z" fill="#5B21B6"/>
</g>
<defs>
<filter id="filter0_d_198_1162" x="0" y="0" width="88" height="88" filterUnits="userSpaceOnUse" color-interpolation-filters="sRGB">
<feFlood flood-opacity="0" result="BackgroundImageFix"/>
<feColorMatrix in="SourceAlpha" type="matrix" values="0 0 0 0 0 0 0 0 0 0 0 0 0 0 0 0 0 0 127 0" result="hardAlpha"/>
<feOffset dx="4" dy="4"/>
<feGaussianBlur stdDeviation="2"/>
<feComposite in2="hardAlpha" operator="out"/>
<feColorMatrix type="matrix" values="0 0 0 0 0 0 0 0 0 0 0 0 0 0 0 0 0 0 0.25 0"/>
<feBlend mode="normal" in2="BackgroundImageFix" result="effect1_dropShadow_198_1162"/>
<feBlend mode="normal" in="SourceGraphic" in2="effect1_dropShadow_198_1162" result="shape"/>
</filter>
</defs>
</svg>
